<?xml version="1.0" encoding="UTF-8" standalone="yes"?><svg xmlns="http://www.w3.org/2000/svg" xmlns:xlink="http://www.w3.org/1999/xlink" height="623px" style="width:1317px;height:623px;" version="1.1" viewBox="0 0 1317 623" width="1317px"><defs><filter height="300%" id="f1" width="300%" x="-1" y="-1"><feGaussianBlur result="blurOut" stdDeviation="2.0"/><feColorMatrix in="blurOut" result="blurOut2" type="matrix" values="0 0 0 0 0 0 0 0 0 0 0 0 0 0 0 0 0 0 .4 0"/><feOffset dx="4.0" dy="4.0" in="blurOut2" result="blurOut3"/><feBlend in="SourceGraphic" in2="blurOut3" mode="normal"/></filter></defs><g><polygon fill="#FFFFFF" filter="url(#f1)" points="195,271,292,271,299,293.4883,375,293.4883,375,425,195,425,195,271" style="stroke: #000000; stroke-width: 2.0;"/><line style="stroke: #000000; stroke-width: 2.0;" x1="195" x2="299" y1="293.4883" y2="293.4883"/><text fill="#000000" font-family="sans-serif" font-size="14" font-weight="bold" lengthAdjust="spacingAndGlyphs" textLength="91" x="199" y="286.5352">maintenance</text><polygon fill="#FFFFFF" filter="url(#f1)" points="632.5,270,803.5,270,810.5,292.4883,813.5,292.4883,813.5,616,632.5,616,632.5,270" style="stroke: #000000; stroke-width: 2.0;"/><line style="stroke: #000000; stroke-width: 2.0;" x1="632.5" x2="810.5" y1="292.4883" y2="292.4883"/><text fill="#000000" font-family="sans-serif" font-size="14" font-weight="bold" lengthAdjust="spacingAndGlyphs" textLength="165" x="636.5" y="285.5352">agency-administration</text><polygon fill="#FFFFFF" filter="url(#f1)" points="842,24,1015,24,1022,46.4883,1041,46.4883,1041,446,842,446,842,24" style="stroke: #000000; stroke-width: 2.0;"/><line style="stroke: #000000; stroke-width: 2.0;" x1="842" x2="1022" y1="46.4883" y2="46.4883"/><text fill="#000000" font-family="sans-serif" font-size="14" font-weight="bold" lengthAdjust="spacingAndGlyphs" textLength="167" x="846" y="39.5352">theater-administration</text><polygon fill="#FFFFFF" filter="url(#f1)" points="1069,195,1118,195,1125,217.4883,1236,217.4883,1236,412,1069,412,1069,195" style="stroke: #000000; stroke-width: 2.0;"/><line style="stroke: #000000; stroke-width: 2.0;" x1="1069" x2="1125" y1="217.4883" y2="217.4883"/><text fill="#000000" font-family="sans-serif" font-size="14" font-weight="bold" lengthAdjust="spacingAndGlyphs" textLength="43" x="1073" y="210.5352">portal</text><ellipse cx="285.1558" cy="323.2312" fill="#F8F8F8" filter="url(#f1)" rx="74.1558" ry="17.2312" style="stroke: #383838; stroke-width: 1.5;"/><text fill="#000000" font-family="sans-serif" font-size="14" lengthAdjust="spacingAndGlyphs" textLength="116" x="227.1558" y="327.9753">Create theater ID</text><ellipse cx="285.2488" cy="392.1498" fill="#F8F8F8" filter="url(#f1)" rx="73.7488" ry="17.1498" style="stroke: #383838; stroke-width: 1.5;"/><text fill="#000000" font-family="sans-serif" font-size="14" lengthAdjust="spacingAndGlyphs" textLength="115" x="227.7488" y="396.8939">Create agency ID</text><ellipse cx="723.0258" cy="391.2052" fill="#F8F8F8" filter="url(#f1)" rx="64.0258" ry="15.2052" style="stroke: #383838; stroke-width: 1.5;"/><text fill="#000000" font-family="sans-serif" font-size="14" lengthAdjust="spacingAndGlyphs" textLength="90" x="678.0258" y="395.9493">Login agency</text><ellipse cx="723.0639" cy="322.8128" fill="#F8F8F8" filter="url(#f1)" rx="74.5639" ry="17.3128" style="stroke: #383838; stroke-width: 1.5;"/><text fill="#000000" font-family="sans-serif" font-size="14" lengthAdjust="spacingAndGlyphs" textLength="117" x="664.5639" y="327.5569">Search theater ID</text><ellipse cx="723.1188" cy="521.159" fill="#F8F8F8" filter="url(#f1)" rx="54.6188" ry="14.659" style="stroke: #383838; stroke-width: 1.5;"/><text fill="#000000" font-family="sans-serif" font-size="14" lengthAdjust="spacingAndGlyphs" textLength="73" x="686.6188" y="525.9031">Add movie</text><ellipse cx="723.2046" cy="585.159" fill="#F8F8F8" filter="url(#f1)" rx="53.2046" ry="14.659" style="stroke: #383838; stroke-width: 1.5;"/><text fill="#000000" font-family="sans-serif" font-size="14" lengthAdjust="spacingAndGlyphs" textLength="71" x="687.7046" y="589.9031">Edit movie</text><ellipse cx="722.7922" cy="456.0584" fill="#F8F8F8" filter="url(#f1)" rx="63.2922" ry="15.0584" style="stroke: #383838; stroke-width: 1.5;"/><text fill="#000000" font-family="sans-serif" font-size="14" lengthAdjust="spacingAndGlyphs" textLength="88" x="678.7922" y="460.8026">Delete movie</text><ellipse cx="941.375" cy="78.075" fill="#F8F8F8" filter="url(#f1)" rx="83.375" ry="19.075" style="stroke: #383838; stroke-width: 1.5;"/><text fill="#000000" font-family="sans-serif" font-size="14" lengthAdjust="spacingAndGlyphs" textLength="138" x="872.375" y="82.8191">Login theater admin</text><ellipse cx="941.3614" cy="147.159" fill="#F8F8F8" filter="url(#f1)" rx="58.8614" ry="14.659" style="stroke: #383838; stroke-width: 1.5;"/><text fill="#000000" font-family="sans-serif" font-size="14" lengthAdjust="spacingAndGlyphs" textLength="79" x="901.8614" y="151.9031">Edit theater</text><ellipse cx="941.5152" cy="212.003" fill="#F8F8F8" filter="url(#f1)" rx="65.5152" ry="15.503" style="stroke: #383838; stroke-width: 1.5;"/><text fill="#000000" font-family="sans-serif" font-size="14" lengthAdjust="spacingAndGlyphs" textLength="94" x="894.5152" y="216.7472">Create screen</text><ellipse cx="941.533" cy="277.159" fill="#F8F8F8" filter="url(#f1)" rx="56.033" ry="14.659" style="stroke: #383838; stroke-width: 1.5;"/><text fill="#000000" font-family="sans-serif" font-size="14" lengthAdjust="spacingAndGlyphs" textLength="75" x="904.033" y="281.9031">Edit screen</text><ellipse cx="941.2669" cy="341.8534" fill="#F8F8F8" filter="url(#f1)" rx="64.7669" ry="15.3534" style="stroke: #383838; stroke-width: 1.5;"/><text fill="#000000" font-family="sans-serif" font-size="14" lengthAdjust="spacingAndGlyphs" textLength="92" x="895.2669" y="346.5975">Delete screen</text><ellipse cx="941.7394" cy="411.1479" fill="#F8F8F8" filter="url(#f1)" rx="81.2394" ry="18.6479" style="stroke: #383838; stroke-width: 1.5;"/><text fill="#000000" font-family="sans-serif" font-size="14" lengthAdjust="spacingAndGlyphs" textLength="133" x="875.2394" y="415.892">Set movie to screen</text><ellipse cx="1152.4158" cy="245.8832" fill="#F8F8F8" filter="url(#f1)" rx="67.4158" ry="15.8832" style="stroke: #383838; stroke-width: 1.5;"/><text fill="#000000" font-family="sans-serif" font-size="14" lengthAdjust="spacingAndGlyphs" textLength="99" x="1102.9158" y="250.6273">Search theater</text><ellipse cx="1152.3954" cy="312.7791" fill="#F8F8F8" filter="url(#f1)" rx="64.3954" ry="15.2791" style="stroke: #383838; stroke-width: 1.5;"/><text fill="#000000" font-family="sans-serif" font-size="14" lengthAdjust="spacingAndGlyphs" textLength="91" x="1106.8954" y="317.5232">Search movie</text><ellipse cx="1152.5324" cy="379.8065" fill="#F8F8F8" filter="url(#f1)" rx="67.0324" ry="15.8065" style="stroke: #383838; stroke-width: 1.5;"/><text fill="#000000" font-family="sans-serif" font-size="14" lengthAdjust="spacingAndGlyphs" textLength="98" x="1103.5324" y="384.5506">Reserve movie</text><ellipse cx="78.5" cy="326.5" fill="#F8F8F8" filter="url(#f1)" rx="8" ry="8" style="stroke: #383838; stroke-width: 2.0;"/><path d="M78.5,334.5 L78.5,361.5 M65.5,342.5 L91.5,342.5 M78.5,361.5 L65.5,376.5 M78.5,361.5 L91.5,376.5 " fill="#F8F8F8" filter="url(#f1)" style="stroke: #383838; stroke-width: 2.0;"/><text fill="#000000" font-family="sans-serif" font-size="14" lengthAdjust="spacingAndGlyphs" textLength="145" x="6" y="397.0352">System administrator</text><ellipse cx="723" cy="180.5" fill="#F8F8F8" filter="url(#f1)" rx="8" ry="8" style="stroke: #383838; stroke-width: 2.0;"/><path d="M723,188.5 L723,215.5 M710,196.5 L736,196.5 M723,215.5 L710,230.5 M723,215.5 L736,230.5 " fill="#F8F8F8" filter="url(#f1)" style="stroke: #383838; stroke-width: 2.0;"/><text fill="#000000" font-family="sans-serif" font-size="14" lengthAdjust="spacingAndGlyphs" textLength="150" x="648" y="251.0352">Theater administrator</text><ellipse cx="1295.5" cy="281.5" fill="#F8F8F8" filter="url(#f1)" rx="8" ry="8" style="stroke: #383838; stroke-width: 2.0;"/><path d="M1295.5,289.5 L1295.5,316.5 M1282.5,297.5 L1308.5,297.5 M1295.5,316.5 L1282.5,331.5 M1295.5,316.5 L1308.5,331.5 " fill="#F8F8F8" filter="url(#f1)" style="stroke: #383838; stroke-width: 2.0;"/><text fill="#000000" font-family="sans-serif" font-size="14" lengthAdjust="spacingAndGlyphs" textLength="31" x="1280" y="352.0352">User</text><ellipse cx="503.5" cy="405.5" fill="#F8F8F8" filter="url(#f1)" rx="8" ry="8" style="stroke: #383838; stroke-width: 2.0;"/><path d="M503.5,413.5 L503.5,440.5 M490.5,421.5 L516.5,421.5 M503.5,440.5 L490.5,455.5 M503.5,440.5 L516.5,455.5 " fill="#F8F8F8" filter="url(#f1)" style="stroke: #383838; stroke-width: 2.0;"/><text fill="#000000" font-family="sans-serif" font-size="14" lengthAdjust="spacingAndGlyphs" textLength="169" x="419" y="476.0352">Film‐distributing agency</text><path d="M151.024,345.759 C175.212,341.619 201.928,337.046 225.03,333.093 " fill="none" style="stroke: #383838; stroke-width: 1.0;"/><path d="M151.024,369.892 C175.097,373.894 201.674,378.313 224.7,382.141 " fill="none" style="stroke: #383838; stroke-width: 1.0;"/><path d="M335.167,310.483 C411.444,291.064 558.774,253.555 647.962,230.849 " fill="none" style="stroke: #383838; stroke-width: 1.0;"/><path d="M340.353,403.297 C364.026,408.218 392.317,414.098 418.59,419.559 " fill="none" style="stroke: #383838; stroke-width: 1.0;"/><path d="M588.28,419.281 C617.599,413.08 649.478,406.338 674.753,400.992 " fill="none" style="stroke: #383838; stroke-width: 1.0;"/><path d="M359.468,323 C439.798,323 567.781,323 648.23,323 " fill="none" style="stroke: #383838; stroke-width: 1.0;"/><path d="M562.764,395.41 C581.899,382.773 603.624,369.475 624.5,359 C641.273,350.584 660.509,343.065 677.439,337.103 " fill="none" style="stroke: #383838; stroke-width: 1.0;"/><path d="M588.021,474.356 C600.185,479.457 612.614,484.485 624.5,489 C644.818,496.718 667.914,504.347 686.526,510.22 " fill="none" style="stroke: #383838; stroke-width: 1.0;"/><path d="M538.89,478.657 C561.102,503.249 591.873,533.3186 624.5,553 C641.738,563.3984 662.755,570.8519 680.856,575.9341 " fill="none" style="stroke: #383838; stroke-width: 1.0;"/><path d="M588.28,444.319 C613.291,446.504 640.164,448.851 663.212,450.865 " fill="none" style="stroke: #383838; stroke-width: 1.0;"/><path d="M763.573,170.306 C783.303,151.39 808.385,129.958 834,115 C850.058,105.623 868.864,98.111 886.167,92.37 " fill="none" style="stroke: #383838; stroke-width: 1.0;"/><path d="M798.204,189.722 C833.702,179.064 874.638,166.774 903.464,158.119 " fill="none" style="stroke: #383838; stroke-width: 1.0;"/><path d="M798.204,212 C823.42,212 851.38,212 875.794,212 " fill="none" style="stroke: #383838; stroke-width: 1.0;"/><path d="M798.204,234.278 C834.069,245.046 875.486,257.481 904.355,266.148 " fill="none" style="stroke: #383838; stroke-width: 1.0;"/><path d="M783.326,253.53 C796.666,264.271 810.203,276.388 821.5,289 C828.494,296.808 825.696,302.604 834,309 C849.335,320.812 868.94,328.431 887.14,333.331 " fill="none" style="stroke: #383838; stroke-width: 1.0;"/><path d="M791.17,253.736 C802.938,263.906 813.846,275.736 821.5,289 C840.803,322.454 809.278,345.324 834,375 C844.244,387.296 858.852,395.409 873.978,400.756 " fill="none" style="stroke: #383838; stroke-width: 1.0;"/><path d="M762.408,510.939 C780.739,505.503 802.719,498.041 821.5,489 C856.889,471.963 894.224,446 917.435,428.771 " fill="none" style="stroke: #383838; stroke-width: 1.0;"/><path d="M985.256,156.837 C1005.129,162.162 1028.78,169.595 1049,179 C1079.65,193.258 1111.77,215.65 1131.7,230.573 " fill="none" style="stroke: #383838; stroke-width: 1.0;"/><path d="M1193.51,258.895 C1209.54,264.609 1227.98,271.881 1244,280 C1256.71,286.439 1270.16,295.35 1279.99,302.289 " fill="none" style="stroke: #383838; stroke-width: 1.0;"/><path d="M1004.987,399.435 C1020.79,394.101 1036.74,386.325 1049,375 C1058.94,365.812 1051.21,356.353 1061,347 C1072.65,335.869 1088.29,328.305 1103.29,323.198 " fill="none" style="stroke: #383838; stroke-width: 1.0;"/><path d="M1217.4,313 C1240.72,313 1265,313 1279.94,313 " fill="none" style="stroke: #383838; stroke-width: 1.0;"/><path d="M1193.51,367.105 C1209.54,361.391 1227.98,354.119 1244,346 C1256.71,339.561 1270.16,330.65 1279.99,323.711 " fill="none" style="stroke: #383838; stroke-width: 1.0;"/></g></svg>